{
  "accessors": [
    {
      "bufferView": 2,
      "componentType": 5126,
      "count": 23172,
      "max": [
        1.0000001192092896,
        0.08100000023841858,
        1.0000001192092896
      ],
      "min": [
        -1.0000001192092896,
        -0.0,
        -1.0000001192092896
      ],
      "type": "VEC3"
    },
    {
      "bufferView": 2,
      "byteOffset": 278064,
      "componentType": 5126,
      "count": 23172,
      "max": [
        1.0,
        1.0,
        1.0
      ],
      "min": [
        -1.0,
        -1.0,
        -1.0
      ],
      "type": "VEC3"
    },
    {
      "bufferView": 1,
      "componentType": 5126,
      "count": 23172,
      "max": [
        1.0000001192092896,
        1.0000001192092896
      ],
      "min": [
        -1.4901115008569832e-08,
        -7.450577932388569e-09
      ],
      "type": "VEC2"
    },
    {
      "bufferView": 0,
      "componentType": 5125,
      "count": 31320,
      "type": "SCALAR"
    },
    {
      "bufferView": 2,
      "byteOffset": 556128,
      "componentType": 5126,
      "count": 65532,
      "max": [
        1.0003161430358887,
        0.08131464570760727,
        1.0003759860992432
      ],
      "min": [
        -1.0003437995910645,
        -0.00026785137015394866,
        -1.0003591775894165
      ],
      "type": "VEC3"
    },
    {
      "bufferView": 2,
      "byteOffset": 1342512,
      "componentType": 5126,
      "count": 65532,
      "max": [
        1.0,
        0.9889653325080872,
        1.0
      ],
      "min": [
        -0.9999997019767761,
        -0.9906273484230042,
        -0.9999995231628418
      ],
      "type": "VEC3"
    },
    {
      "bufferView": 1,
      "byteOffset": 185376,
      "componentType": 5126,
      "count": 65532,
      "max": [
        1.0000001192092896,
        1.0000001192092896
      ],
      "min": [
        -1.4901115008569832e-08,
        -7.450577932388569e-09
      ],
      "type": "VEC2"
    },
    {
      "bufferView": 0,
      "byteOffset": 125280,
      "componentType": 5125,
      "count": 98298,
      "type": "SCALAR"
    },
    {
      "bufferView": 2,
      "byteOffset": 2128896,
      "componentType": 5126,
      "count": 65532,
      "max": [
        1.0003553628921509,
        0.08131464570760727,
        1.0003759860992432
      ],
      "min": [
        -1.0003437995910645,
        -0.000273991929134354,
        -1.0003567934036255
      ],
      "type": "VEC3"
    },
    {
      "bufferView": 2,
      "byteOffset": 2915280,
      "componentType": 5126,
      "count": 65532,
      "max": [
        0.9999995231628418,
        0.9952017068862915,
        0.9999993443489075
      ],
      "min": [
        -0.9999992251396179,
        -0.9893698692321777,
        -0.9999974966049194
      ],
      "type": "VEC3"
    },
    {
      "bufferView": 1,
      "byteOffset": 709632,
      "componentType": 5126,
      "count": 65532,
      "max": [
        1.0000001192092896,
        1.0000001192092896
      ],
      "min": [
        -1.4901115008569832e-08,
        -7.450577932388569e-09
      ],
      "type": "VEC2"
    },
    {
      "bufferView": 0,
      "byteOffset": 518472,
      "componentType": 5125,
      "count": 98298,
      "type": "SCALAR"
    },
    {
      "bufferView": 2,
      "byteOffset": 3701664,
      "componentType": 5126,
      "count": 54936,
      "max": [
        1.0003553628921509,
        0.08131464570760727,
        1.000343918800354
      ],
      "min": [
        -1.0003437995910645,
        -0.000273991929134354,
        -1.0003591775894165
      ],
      "type": "VEC3"
    },
    {
      "bufferView": 2,
      "byteOffset": 4360896,
      "componentType": 5126,
      "count": 54936,
      "max": [
        0.9999999403953552,
        0.9875749945640564,
        1.0
      ],
      "min": [
        -1.0,
        -0.9826363325119019,
        -1.0
      ],
      "type": "VEC3"
    },
    {
      "bufferView": 1,
      "byteOffset": 1233888,
      "componentType": 5126,
      "count": 54936,
      "max": [
        1.0000001192092896,
        1.0000001192092896
      ],
      "min": [
        -1.4901115008569832e-08,
        -7.450577932388569e-09
      ],
      "type": "VEC2"
    },
    {
      "bufferView": 0,
      "byteOffset": 911664,
      "componentType": 5125,
      "count": 82404,
      "type": "SCALAR"
    }
  ],
  "asset": {
    "extras": {
      "author": "Adamante (https://sketchfab.com/Adamant6686)",
      "license": "CC-BY-4.0 (http://creativecommons.org/licenses/by/4.0/)",
      "source": "https://sketchfab.com/3d-models/abstract-red-background-c8e13126e1d04d3e83de457233fdcf2a",
      "title": "Abstract red background"
    },
    "generator": "Sketchfab-12.65.0",
    "version": "2.0"
  },
  "bufferViews": [
    {
      "buffer": 0,
      "byteLength": 1241280,
      "name": "floatBufferViews",
      "target": 34963
    },
    {
      "buffer": 0,
      "byteLength": 1673376,
      "byteOffset": 1241280,
      "byteStride": 8,
      "name": "floatBufferViews",
      "target": 34962
    },
    {
      "buffer": 0,
      "byteLength": 5020128,
      "byteOffset": 2914656,
      "byteStride": 12,
      "name": "floatBufferViews",
      "target": 34962
    }
  ],
  "buffers": [
    {
      "byteLength": 7934784,
      "uri": "scene.bin"
    }
  ],
  "materials": [
    {
      "doubleSided": true,
      "name": "Material.001",
      "pbrMetallicRoughness": {
        "baseColorFactor": [
          0.0,
          0.0,
          0.0,
          1.0
        ],
        "metallicFactor": 0.6268132307563571,
        "roughnessFactor": 0.3536920013466631
      }
    },
    {
      "doubleSided": true,
      "emissiveFactor": [
        1.0,
        0.0,
        0.0
      ],
      "name": "Material.002",
      "pbrMetallicRoughness": {
        "baseColorFactor": [
          1.0,
          0.0,
          0.0,
          1.0
        ],
        "metallicFactor": 0.0,
        "roughnessFactor": 0.0
      }
    }
  ],
  "meshes": [
    {
      "name": "Object_0",
      "primitives": [
        {
          "attributes": {
            "NORMAL": 1,
            "POSITION": 0,
            "TEXCOORD_0": 2
          },
          "indices": 3,
          "material": 0,
          "mode": 4
        }
      ]
    },
    {
      "name": "Object_1",
      "primitives": [
        {
          "attributes": {
            "NORMAL": 5,
            "POSITION": 4,
            "TEXCOORD_0": 6
          },
          "indices": 7,
          "material": 1,
          "mode": 4
        }
      ]
    },
    {
      "name": "Object_2",
      "primitives": [
        {
          "attributes": {
            "NORMAL": 9,
            "POSITION": 8,
            "TEXCOORD_0": 10
          },
          "indices": 11,
          "material": 1,
          "mode": 4
        }
      ]
    },
    {
      "name": "Object_3",
      "primitives": [
        {
          "attributes": {
            "NORMAL": 13,
            "POSITION": 12,
            "TEXCOORD_0": 14
          },
          "indices": 15,
          "material": 1,
          "mode": 4
        }
      ]
    }
  ],
  "nodes": [
    {
      "children": [
        1
      ],
      "matrix": [
        1.0,
        0.0,
        0.0,
        0.0,
        0.0,
        1.0,
        0.0,
        0.0,
        0.0,
        0.0,
        1.0,
        0.0,
        0.0,
        0.040528658777475364,
        -0.04051185026764869,
        1.0
      ],
      "name": "Sketchfab_model"
    },
    {
      "children": [
        2
      ],
      "name": "root"
    },
    {
      "children": [
        3
      ],
      "matrix": [
        1.0,
        0.0,
        0.0,
        0.0,
        0.0,
        2.220446049250313e-16,
        1.0,
        0.0,
        0.0,
        -1.0,
        2.220446049250313e-16,
        0.0,
        0.0,
        0.0,
        0.0,
        1.0
      ],
      "name": "GLTF_SceneRootNode"
    },
    {
      "children": [
        4,
        5,
        6,
        7
      ],
      "name": "Plane_0"
    },
    {
      "mesh": 0,
      "name": "Object_4"
    },
    {
      "mesh": 1,
      "name": "Object_5"
    },
    {
      "mesh": 2,
      "name": "Object_6"
    },
    {
      "mesh": 3,
      "name": "Object_7"
    }
  ],
  "scene": 0,
  "scenes": [
    {
      "name": "Sketchfab_Scene",
      "nodes": [
        0
      ]
    }
  ]
}
